<?xml version="1.0" encoding="utf-8"?>
<!-- Generator: Adobe Illustrator 24.3.0, SVG Export Plug-In . SVG Version: 6.00 Build 0)  -->
<svg version="1.1" id="Calque_1" xmlns="http://www.w3.org/2000/svg" xmlns:xlink="http://www.w3.org/1999/xlink" x="0px" y="0px"
	 viewBox="0 0 700 700" style="enable-background:new 0 0 700 700;" xml:space="preserve">
<style type="text/css">
	.st0{fill:#FFFFFF;}
</style>
<g>
	<path class="st0" d="M182,120.4h336c34.2,0,61.6,27.4,61.6,61.6v336c0,34.2-27.4,61.6-61.6,61.6H182c-34.2,0-61.6-27.4-61.6-61.6
		V182C120.4,147.8,147.8,120.4,182,120.4z M299.6,238c-27.8,0-50.4,22.6-50.4,50.4s22.6,50.4,50.4,50.4c37.8-1.2,75.4,0.5,107.1-0.3
		c25.1-2.9,44.4-24.7,44.1-50.8c-0.3-25.5-19.3-46.4-43.8-49.4C369.2,237.8,331.1,238,299.6,238L299.6,238z M299.6,249.2
		c21.7,0,39.2,17.5,39.2,39.2c0,21.7-17.5,39.2-39.2,39.2h-0.2c-21.6-0.1-39-17.5-39-39.2S277.9,249.2,299.6,249.2L299.6,249.2z
		 M331.1,249.2c24.2-0.1,47.5,0,74.6,0.2c18.9,2.3,33.7,18.5,33.9,38.5c0.3,20.4-14.7,37.2-34.1,39.4c-25.1,0.4-51.1,0.2-74,0.2
		c11.3-9.3,18.6-23.3,18.6-39C350,272.6,342.6,258.5,331.1,249.2L331.1,249.2z M293,395.2c-24.4,2.9-43.4,23.9-43.8,49.4
		c-0.3,26,19,47.9,44.1,50.8c36.2,1,74.5-0.1,107.1,0.3c27.8,0,50.4-22.6,50.4-50.4s-22.6-50.4-50.4-50.4
		C363.5,395.2,327.5,394.1,293,395.2L293,395.2z M368.9,406c-11.5,9.2-18.9,23.4-18.9,39.2c0,15.7,7.2,29.8,18.6,39
		c-26.2-0.6-52.3,0.4-74-0.2c-19.4-2.2-34.4-18.9-34.1-39.4c0.3-20,15.1-36.2,33.9-38.5C319.5,405.9,347.8,406,368.9,406L368.9,406z
		"/>
</g>
</svg>
