<?xml version="1.0" encoding="utf-8"?>
<!-- Generator: Adobe Illustrator 24.3.0, SVG Export Plug-In . SVG Version: 6.00 Build 0)  -->
<svg version="1.1" id="Calque_1" xmlns="http://www.w3.org/2000/svg" xmlns:xlink="http://www.w3.org/1999/xlink" x="0px" y="0px"
	 viewBox="0 0 700 700" style="enable-background:new 0 0 700 700;" xml:space="preserve">
<style type="text/css">
	.st0{fill-rule:evenodd;clip-rule:evenodd;fill:#FFFFFF;}
</style>
<g>
	<path class="st0" d="M344.2,456.8h-89c-4.7,0-9.2,1.9-12.5,5.2c-3.3,3.3-5.2,7.8-5.2,12.5V599h124.4V474.5c0-4.7-1.9-9.2-5.2-12.5
		C353.4,458.6,348.9,456.8,344.2,456.8L344.2,456.8z"/>
	<path class="st0" d="M481.4,207.8l-142.2-94.9l0,0c-11.7-7.8-25.4-11.9-39.4-11.9s-27.8,4.2-39.4,11.9l-142.3,94.9
		C98.5,221.1,86.9,243.3,87,267v260.9c0,18.8,7.4,36.8,20.7,50.1c13.2,13.3,31.2,20.9,50,21h44.5V474.5c0-14.2,5.6-27.7,15.6-37.7
		s23.6-15.6,37.7-15.6h88.8c14.1,0,27.6,5.6,37.6,15.6s15.6,23.5,15.6,37.6v124.5H442c18.9,0,36.9-7.5,50.3-20.8
		c13.3-13.3,20.8-31.4,20.8-50.3V267.2C513,243.3,501.1,221.1,481.4,207.8L481.4,207.8z"/>
</g>
</svg>
