<?xml version="1.0" encoding="utf-8"?>
<!-- Generator: Adobe Illustrator 24.3.0, SVG Export Plug-In . SVG Version: 6.00 Build 0)  -->
<svg version="1.1" id="Calque_1" xmlns="http://www.w3.org/2000/svg" xmlns:xlink="http://www.w3.org/1999/xlink" x="0px" y="0px"
	 viewBox="0 0 700 700" style="enable-background:new 0 0 700 700;" xml:space="preserve">
<style type="text/css">
	.st0{fill:#FFFFFF;}
</style>
<g>
	<path class="st0" d="M591.6,135.6H379.4c-14,0-24.6,11.2-24.6,24.6v68.9h92.4c39.8,0,72.2,32.5,72.2,72.2v97.4
		c0,39.8-32.5,72.2-72.2,72.2h-92.4v68.9c0,14,11.2,24.6,24.6,24.6h211.7c14,0,24.6-11.2,24.6-24.6v-379
		C616.3,147.4,605.1,135.6,591.6,135.6L591.6,135.6z"/>
	<path class="st0" d="M469.5,398.8v-97.4c0-12.3-10.1-22.4-22.4-22.4H292v-34.2c0-17.4-19.6-28-34.2-18.5L94.4,331.6
		c-13.4,9-13.4,28.6,0,37.5l163,105.3c14.6,9.5,34.2-1.1,34.2-18.5v-34.2h155.1C459.5,421.2,469.6,411.1,469.5,398.8L469.5,398.8z"
		/>
</g>
</svg>
