<?xml version="1.0" encoding="utf-8"?>
<!-- Generator: Adobe Illustrator 24.3.0, SVG Export Plug-In . SVG Version: 6.00 Build 0)  -->
<svg version="1.1" id="Calque_1" xmlns="http://www.w3.org/2000/svg" xmlns:xlink="http://www.w3.org/1999/xlink" x="0px" y="0px"
	 viewBox="0 0 18 18" style="enable-background:new 0 0 18 18;" xml:space="preserve">
<style type="text/css">
	.st0{fill:none;}
	.st1{fill-rule:evenodd;clip-rule:evenodd;fill:#FFFFFF;}
</style>
<desc>Created with Sketch.</desc>
<g id="Icons">
	<g id="Rounded" transform="translate(-341.000000, -245.000000)">
		<g id="Action" transform="translate(100.000000, 100.000000)">
			<g id="_x2D_Round-_x2F_-Action-_x2F_-dashboard" transform="translate(238.000000, 142.000000)">
				<g>
					<polygon id="Path" class="st0" points="0,1 24,1 24,25 0,25 					"/>
					<path id="_xD83D__xDD39_Icon-Color" class="st1" d="M4,14h6c0.6,0,1-0.4,1-1V5c0-0.5-0.4-1-1-1H4C3.5,4,3,4.5,3,5v8
						C3,13.6,3.5,14,4,14z M4,22h6c0.6,0,1-0.5,1-1v-4c0-0.6-0.4-1-1-1H4c-0.5,0-1,0.4-1,1v4C3,21.5,3.5,22,4,22z M14,22h6
						c0.5,0,1-0.5,1-1v-8c0-0.6-0.5-1-1-1h-6c-0.6,0-1,0.4-1,1v8C13,21.5,13.4,22,14,22z M13,5v4c0,0.6,0.4,1,1,1h6c0.5,0,1-0.4,1-1
						V5c0-0.5-0.5-1-1-1h-6C13.4,4,13,4.5,13,5z"/>
				</g>
			</g>
		</g>
	</g>
</g>
</svg>
