<?xml version="1.0" encoding="utf-8"?>
<!-- Generator: Adobe Illustrator 24.3.0, SVG Export Plug-In . SVG Version: 6.00 Build 0)  -->
<svg version="1.1" id="Calque_1" xmlns="http://www.w3.org/2000/svg" xmlns:xlink="http://www.w3.org/1999/xlink" x="0px" y="0px"
	 viewBox="0 0 700 700" style="enable-background:new 0 0 700 700;" xml:space="preserve">
<style type="text/css">
	.st0{fill:none;}
	.st1{fill-rule:evenodd;clip-rule:evenodd;fill:#FFFFFF;}
</style>
<g>
	<desc>Created with Sketch.</desc>
	<g id="Icons">
		<g id="Rounded" transform="translate(-341.000000, -245.000000)">
			<g id="Action" transform="translate(100.000000, 100.000000)">
				<g id="_x2D_Round-_x2F_-Action-_x2F_-dashboard" transform="translate(238.000000, 142.000000)">
					<g>
						<polygon id="Path" class="st0" points="33.2,44.3 650.5,44.3 650.5,661.7 33.2,661.7 						"/>
						<path id="_xD83D__xDD39_Icon-Color" class="st1" d="M136.1,378.7h154.3c15.4,0,25.7-10.3,25.7-25.7V147.2
							c0-12.9-10.3-25.7-25.7-25.7H136.1c-12.9,0-25.7,12.9-25.7,25.7V353C110.3,368.4,123.2,378.7,136.1,378.7z M136.1,584.5h154.3
							c15.4,0,25.7-12.9,25.7-25.7V455.9c0-15.4-10.3-25.7-25.7-25.7H136.1c-12.9,0-25.7,10.3-25.7,25.7v102.9
							C110.3,571.6,123.2,584.5,136.1,584.5z M393.3,584.5h154.3c12.9,0,25.7-12.9,25.7-25.7V353c0-15.4-12.9-25.7-25.7-25.7H393.3
							c-15.4,0-25.7,10.3-25.7,25.7v205.8C367.6,571.6,377.9,584.5,393.3,584.5z M367.6,147.2v102.9c0,15.4,10.3,25.7,25.7,25.7
							h154.3c12.9,0,25.7-10.3,25.7-25.7V147.2c0-12.9-12.9-25.7-25.7-25.7H393.3C377.9,121.5,367.6,134.4,367.6,147.2z"/>
					</g>
				</g>
			</g>
		</g>
	</g>
</g>
</svg>
