<?xml version="1.0" encoding="utf-8"?>
<!-- Generator: Adobe Illustrator 24.3.0, SVG Export Plug-In . SVG Version: 6.00 Build 0)  -->
<svg version="1.1" id="Calque_1" xmlns="http://www.w3.org/2000/svg" xmlns:xlink="http://www.w3.org/1999/xlink" x="0px" y="0px"
	 viewBox="0 0 700 700" style="enable-background:new 0 0 700 700;" xml:space="preserve">
<style type="text/css">
	.st0{fill:#FFFFFF;}
</style>
<g>
	<path class="st0" d="M129,190.9h190l-70.6,70.8c-8.4,8.4-14.4,18.9-17.5,30.4l-34.3,128.4c-5.5,20.4-1.1,42.3,11.8,59.1
		c12.9,16.8,32.9,26.6,54,26.6h0.3c6.1,0,12.1-0.9,17.9-2.5l128-35.6c11.4-3.2,21.8-9.3,30.1-17.7l70.8-70.8v191.8
		c0,11.9-4.7,23.3-13.1,31.7s-19.8,13.1-31.7,13.1H129c-11.9,0-23.3-4.7-31.7-13.1c-8.4-8.4-13.1-19.8-13.1-31.7V235.7
		c0-11.9,4.7-23.3,13.1-31.7S117.1,190.9,129,190.9L129,190.9z M274.1,303.7c1-3.9,3.1-7.5,5.9-10.4L482.2,90.8
		c4.4-4.4,10.3-6.9,16.5-6.9h0.6c30.8,0,60.3,12.3,82.1,34s34.2,51.2,34.4,82c0,6.2-2.4,12.1-6.7,16.5L406.8,418.8
		c-2.9,2.9-6.4,5-10.3,6l-128,35.6c-2,0.5-4,0.8-6.1,0.8c-7.2,0-14-3.4-18.4-9.2c-4.4-5.7-5.9-13.2-4-20.2L274.1,303.7z M304.1,372
		c10.6,4.6,19.1,13.1,23.9,23.6l50-13.9c-2.1-15.2-9.2-29.3-20.2-40.1s-25.1-17.7-40.4-19.6L304.1,372z"/>
</g>
</svg>
