<svg id="Calque_1" data-name="Calque 1" xmlns="http://www.w3.org/2000/svg" xmlns:xlink="http://www.w3.org/1999/xlink" viewBox="0 0 247.36 63.95"><defs><style>.cls-1{fill:#065189;}.cls-2{fill:url(#Dégradé_sans_nom_24);}.cls-3{fill:url(#Dégradé_sans_nom_24-2);}.cls-4{fill:url(#Dégradé_sans_nom_24-3);}.cls-5{fill:url(#Dégradé_sans_nom_114);}.cls-6{fill:url(#Dégradé_sans_nom_114-2);}.cls-7{fill:url(#Dégradé_sans_nom_24-4);}</style><radialGradient id="Dégradé_sans_nom_24" cx="237.9" cy="60.33" r="10.11" gradientUnits="userSpaceOnUse"><stop offset="0" stop-color="#5fbdaa"/><stop offset="0.84" stop-color="#22a4a4"/></radialGradient><radialGradient id="Dégradé_sans_nom_24-2" cx="237.9" cy="46.56" r="9.92" xlink:href="#Dégradé_sans_nom_24"/><radialGradient id="Dégradé_sans_nom_24-3" cx="182.88" cy="52.46" r="16.98" xlink:href="#Dégradé_sans_nom_24"/><linearGradient id="Dégradé_sans_nom_114" x1="166.53" y1="29.87" x2="199.23" y2="29.87" gradientUnits="userSpaceOnUse"><stop offset="0" stop-color="#065189"/><stop offset="1" stop-color="#273069"/></linearGradient><linearGradient id="Dégradé_sans_nom_114-2" x1="4.32" y1="38.96" x2="150.5" y2="38.96" xlink:href="#Dégradé_sans_nom_114"/><radialGradient id="Dégradé_sans_nom_24-4" cx="83.61" cy="71.22" r="53.95" xlink:href="#Dégradé_sans_nom_24"/></defs><path class="cls-1" d="M219.08,78.83a5.17,5.17,0,0,0,2.72-.68l-7.2-14.08c-2.17-4.22-5.71-4.22-7.87,0l-7.2,14.08a5.15,5.15,0,0,0,2.72.68Z" transform="translate(-4.32 -24.25)"/><path class="cls-1" d="M202.25,79.87a6.17,6.17,0,0,1-3.2-.8l-.73,1.44c-2.16,4.23-.39,7.68,3.93,7.68h16.83c4.32,0,6.09-3.45,3.93-7.68l-.74-1.43a6.23,6.23,0,0,1-3.19.79Z" transform="translate(-4.32 -24.25)"/><path class="cls-1" d="M223.78,77.61c1-1.61.87-3.87-.31-6.18L215.06,55c-1.14-2.23-2.7-3.45-4.4-3.45s-3.25,1.22-4.39,3.45l-8.41,16.44c-1.19,2.31-1.3,4.57-.31,6.18a4.2,4.2,0,0,0,1.5,1.46l.48-.92a3.31,3.31,0,0,1-1.09-1.08c-.8-1.3-.67-3.18.34-5.17l8.42-16.44c1-1.86,2.18-2.88,3.46-2.88s2.52,1,3.47,2.88l8.41,16.44c1,2,1.15,3.87.35,5.17a3.31,3.31,0,0,1-1.09,1.08l.47.93A4.34,4.34,0,0,0,223.78,77.61Z" transform="translate(-4.32 -24.25)"/><path class="cls-1" d="M251,52.58a4.28,4.28,0,0,0-1.5-1.46L249,52a3.31,3.31,0,0,1,1.09,1.08c.8,1.3.67,3.18-.34,5.17l-8.42,16.44c-1,1.86-2.18,2.88-3.46,2.88s-2.52-1-3.47-2.88L226,58.29c-1-2-1.15-3.87-.35-5.17A3.31,3.31,0,0,1,226.76,52l-.47-.92a4.31,4.31,0,0,0-1.51,1.46c-1,1.62-.87,3.87.31,6.18L233.5,75.2c1.14,2.23,2.7,3.45,4.4,3.45s3.25-1.22,4.39-3.45l8.41-16.44C251.89,56.45,252,54.19,251,52.58Z" transform="translate(-4.32 -24.25)"/><path class="cls-2" d="M229.48,51.36a5.17,5.17,0,0,0-2.72.68L234,66.12c2.17,4.23,5.71,4.23,7.87,0L249,52a5.15,5.15,0,0,0-2.72-.68Z" transform="translate(-4.32 -24.25)"/><path class="cls-3" d="M246.31,50.32a6.17,6.17,0,0,1,3.2.8l.73-1.44c2.16-4.22.39-7.68-3.93-7.68H229.48c-4.32,0-6.09,3.46-3.93,7.68l.74,1.44a6.14,6.14,0,0,1,3.19-.8Z" transform="translate(-4.32 -24.25)"/><path class="cls-4" d="M199,37.29a5.23,5.23,0,0,0-1.85-1.8l-.59,1.14A4,4,0,0,1,198,38c1,1.6.82,3.92-.43,6.37L187.15,64.59c-1.17,2.29-2.69,3.56-4.27,3.56s-3.1-1.27-4.28-3.56L168.23,44.33c-1.25-2.45-1.4-4.77-.42-6.37a4,4,0,0,1,1.34-1.33l-.58-1.14a5.26,5.26,0,0,0-1.86,1.8c-1.22,2-1.08,4.77.38,7.62l10.37,20.26c1.4,2.75,3.33,4.26,5.42,4.26s4-1.51,5.42-4.26l10.37-20.26C200.12,42.06,200.26,39.28,199,37.29Z" transform="translate(-4.32 -24.25)"/><path class="cls-5" d="M193.25,34.51a7.6,7.6,0,0,1,3.94,1l.9-1.77c2.67-5.21.49-9.47-4.84-9.47H172.51c-5.33,0-7.51,4.26-4.85,9.47l.91,1.77a7.6,7.6,0,0,1,3.94-1Z" transform="translate(-4.32 -24.25)"/><path class="cls-1" d="M172.51,35.79a6.32,6.32,0,0,0-3.36.84L178,54c2.67,5.21,7,5.21,9.69,0l8.88-17.35a6.28,6.28,0,0,0-3.35-.84Z" transform="translate(-4.32 -24.25)"/><path class="cls-6" d="M4.32,53.27V24.64h8.46a13.35,13.35,0,0,1,6.73,1.69,11.52,11.52,0,0,1,4.55,4.8,15.16,15.16,0,0,1,1.61,7.12v1.43a15.18,15.18,0,0,1-1.62,7.16,11.4,11.4,0,0,1-4.62,4.76,13.92,13.92,0,0,1-6.87,1.67Zm5-24.62V49.3h3.25a7.49,7.49,0,0,0,6-2.45c1.39-1.63,2.1-4,2.13-7V38.23q0-4.66-2-7.12a7.17,7.17,0,0,0-5.87-2.46ZM35.88,53.27h-5V24.64h5Zm28.05-3.72a9.46,9.46,0,0,1-4.3,3.07,17.69,17.69,0,0,1-6.25,1A12.27,12.27,0,0,1,47,52a10.84,10.84,0,0,1-4.28-4.67,16.38,16.38,0,0,1-1.56-7.09V38q0-6.48,3.1-10.13a10.75,10.75,0,0,1,8.67-3.65,11.38,11.38,0,0,1,7.59,2.37,10.18,10.18,0,0,1,3.38,6.81H59q-.82-5.17-6-5.17A5.86,5.86,0,0,0,48,30.67q-1.74,2.4-1.8,7.06v2.2q0,4.64,2,7.2a6.43,6.43,0,0,0,5.43,2.56c2.55,0,4.35-.58,5.43-1.73v-5.6h-5.9V38.58H63.93Zm10.72,3.72h-5V24.64h5Zm16.63-11H85.74v11h-5V24.64H90.83q5,0,7.65,2.22a7.87,7.87,0,0,1,2.69,6.44,8.07,8.07,0,0,1-1.38,4.81,8.8,8.8,0,0,1-3.87,3L102.35,53v.26H97Zm-5.54-4h5.11A5.7,5.7,0,0,0,94.78,37a4.41,4.41,0,0,0,1.42-3.47A4.73,4.73,0,0,0,94.89,30a5.56,5.56,0,0,0-3.9-1.3H85.74Zm36.88,2.24H110.87V49.3h13.74v4H105.89V24.64h18.58v4h-13.6v7.91h11.75ZM150.5,44a10.3,10.3,0,0,1-3.38,7.15,11.51,11.51,0,0,1-7.84,2.56,11.2,11.2,0,0,1-6-1.62,10.6,10.6,0,0,1-4-4.61,16.71,16.71,0,0,1-1.47-6.94V37.81a16.69,16.69,0,0,1,1.43-7.13,10.8,10.8,0,0,1,4.12-4.76,11.53,11.53,0,0,1,6.2-1.67,11.05,11.05,0,0,1,7.63,2.56,10.7,10.7,0,0,1,3.36,7.27h-4.95a7.1,7.1,0,0,0-1.8-4.45,5.91,5.91,0,0,0-4.24-1.37,5.81,5.81,0,0,0-5,2.37q-1.74,2.37-1.78,7v2.54q0,4.63,1.66,7.08a5.51,5.51,0,0,0,4.87,2.44,6.41,6.41,0,0,0,4.4-1.32A6.85,6.85,0,0,0,145.55,44Z" transform="translate(-4.32 -24.25)"/><path class="cls-7" d="M11,72.59l2-6.16H14.5l-2.84,7.88H10.33L7.51,66.43H9Zm3.77-1.26a3.4,3.4,0,0,1,.35-1.55,2.48,2.48,0,0,1,.95-1.07,2.81,2.81,0,0,1,1.42-.37,2.58,2.58,0,0,1,1.93.77,3,3,0,0,1,.8,2v.31A3.53,3.53,0,0,1,19.88,73,2.42,2.42,0,0,1,18.93,74a2.76,2.76,0,0,1-1.44.38,2.55,2.55,0,0,1-2-.83,3.14,3.14,0,0,1-.75-2.2Zm1.32.11a2.37,2.37,0,0,0,.37,1.42,1.22,1.22,0,0,0,1,.51,1.19,1.19,0,0,0,1-.52,2.61,2.61,0,0,0,.37-1.52,2.38,2.38,0,0,0-.38-1.41,1.29,1.29,0,0,0-2.06,0A2.57,2.57,0,0,0,16.08,71.44Zm8.53,1.28a.61.61,0,0,0-.29-.54,3.11,3.11,0,0,0-1-.32,4.92,4.92,0,0,1-1.12-.36,1.5,1.5,0,0,1-1-1.38,1.55,1.55,0,0,1,.64-1.27,2.53,2.53,0,0,1,1.62-.51,2.67,2.67,0,0,1,1.7.52,1.67,1.67,0,0,1,.65,1.35H24.54a.81.81,0,0,0-.28-.63,1.06,1.06,0,0,0-.75-.25,1.12,1.12,0,0,0-.7.2.64.64,0,0,0-.28.54.54.54,0,0,0,.26.47,3.72,3.72,0,0,0,1,.34,4.61,4.61,0,0,1,1.21.4,1.71,1.71,0,0,1,.66.57,1.44,1.44,0,0,1,.21.8,1.54,1.54,0,0,1-.65,1.28,2.78,2.78,0,0,1-1.72.49,3,3,0,0,1-1.28-.26,2,2,0,0,1-.88-.72,1.68,1.68,0,0,1-.31-1h1.27a.92.92,0,0,0,.36.72,1.33,1.33,0,0,0,.86.25,1.36,1.36,0,0,0,.79-.19A.63.63,0,0,0,24.61,72.72Zm5.55,1.59V69.43h-.89v-1h.89v-.4a2.32,2.32,0,0,1,.29-1.18,1.76,1.76,0,0,1,.81-.74,2.88,2.88,0,0,1,1.27-.25,3.84,3.84,0,0,1,.83.09c.26.06.54.14.82.23L34,67.29A4.27,4.27,0,0,0,32.62,67a1.19,1.19,0,0,0-.87.27,1,1,0,0,0-.28.78v.37h1.16v1H31.47v4.88Zm4.65,0H33.49V68.45h1.32Zm2.68-5.86,0,.68a2.14,2.14,0,0,1,1.71-.79q1.83,0,1.86,2.1v3.87H39.78V70.52a1.21,1.21,0,0,0-.24-.83,1,1,0,0,0-.79-.27,1.27,1.27,0,0,0-1.19.72v4.17H36.25V68.45Zm8.44,5.86a2.14,2.14,0,0,1-.15-.55,2,2,0,0,1-1.54.66,2.1,2.1,0,0,1-1.44-.5,1.62,1.62,0,0,1-.55-1.25,1.69,1.69,0,0,1,.69-1.44,3.4,3.4,0,0,1,2-.5h.81v-.38a1,1,0,0,0-.26-.73,1,1,0,0,0-.77-.27,1.16,1.16,0,0,0-.74.22.69.69,0,0,0-.28.57H42.37a1.48,1.48,0,0,1,.32-.9,2.1,2.1,0,0,1,.87-.66,3,3,0,0,1,1.23-.24,2.5,2.5,0,0,1,1.64.52,1.87,1.87,0,0,1,.62,1.46V73a3,3,0,0,0,.23,1.26v.09Zm-1.44-1a1.45,1.45,0,0,0,.73-.19,1.26,1.26,0,0,0,.52-.5V71.56H45a2,2,0,0,0-1.1.25.82.82,0,0,0-.37.72.8.8,0,0,0,.25.61A1,1,0,0,0,44.49,73.36Zm5.16-4.91,0,.68a2.13,2.13,0,0,1,1.71-.79q1.83,0,1.86,2.1v3.87H51.94V70.52a1.21,1.21,0,0,0-.24-.83,1,1,0,0,0-.78-.27,1.27,1.27,0,0,0-1.19.72v4.17H48.41V68.45ZM57,73.37a1.21,1.21,0,0,0,.82-.29,1,1,0,0,0,.34-.71h1.24a1.89,1.89,0,0,1-.34,1,2.13,2.13,0,0,1-.87.75,2.48,2.48,0,0,1-1.18.28,2.5,2.5,0,0,1-2-.8,3.14,3.14,0,0,1-.72-2.19v-.14a3.08,3.08,0,0,1,.72-2.14,2.48,2.48,0,0,1,2-.81,2.42,2.42,0,0,1,1.7.61,2.18,2.18,0,0,1,.69,1.6H58.17a1.22,1.22,0,0,0-.34-.83A1.14,1.14,0,0,0,57,69.4a1.15,1.15,0,0,0-1,.46,2.36,2.36,0,0,0-.35,1.41v.21A2.48,2.48,0,0,0,56,72.9,1.17,1.17,0,0,0,57,73.37Zm6,1a2.7,2.7,0,0,1-2-.79,2.84,2.84,0,0,1-.78-2.1v-.16a3.48,3.48,0,0,1,.34-1.57,2.55,2.55,0,0,1,2.31-1.46,2.29,2.29,0,0,1,1.85.77,3.21,3.21,0,0,1,.66,2.16v.53H61.51A1.78,1.78,0,0,0,62,73a1.45,1.45,0,0,0,1.07.42,1.8,1.8,0,0,0,1.47-.73l.71.67a2.21,2.21,0,0,1-.94.82A3,3,0,0,1,63,74.42Zm-.16-5a1.14,1.14,0,0,0-.88.38,1.94,1.94,0,0,0-.42,1H64v-.09a1.57,1.57,0,0,0-.36-1A1.07,1.07,0,0,0,62.83,69.4Zm6.81,3.32a.61.61,0,0,0-.29-.54,3,3,0,0,0-1-.32,4.92,4.92,0,0,1-1.12-.36,1.5,1.5,0,0,1-1-1.38,1.58,1.58,0,0,1,.64-1.27,2.54,2.54,0,0,1,1.63-.51,2.64,2.64,0,0,1,1.69.52,1.64,1.64,0,0,1,.65,1.35H69.58a.82.82,0,0,0-.29-.63,1,1,0,0,0-.74-.25,1.13,1.13,0,0,0-.71.2.63.63,0,0,0-.27.54.53.53,0,0,0,.25.47,3.72,3.72,0,0,0,1,.34,4.7,4.7,0,0,1,1.22.4,1.75,1.75,0,0,1,.65.57,1.45,1.45,0,0,1,.22.8,1.52,1.52,0,0,1-.66,1.28,2.78,2.78,0,0,1-1.72.49,3.08,3.08,0,0,1-1.28-.26,2,2,0,0,1-.88-.72,1.68,1.68,0,0,1-.31-1h1.28a.91.91,0,0,0,.35.72,1.66,1.66,0,0,0,1.65.06A.63.63,0,0,0,69.64,72.72Zm7.78,1.7a2.72,2.72,0,0,1-2-.79,2.87,2.87,0,0,1-.77-2.1v-.16A3.48,3.48,0,0,1,75,69.8a2.55,2.55,0,0,1,2.31-1.46,2.31,2.31,0,0,1,1.85.77,3.26,3.26,0,0,1,.65,2.16v.53H75.94A1.79,1.79,0,0,0,76.43,73a1.45,1.45,0,0,0,1.07.42A1.8,1.8,0,0,0,79,72.64l.71.67a2.27,2.27,0,0,1-.94.82A3,3,0,0,1,77.42,74.42Zm-.16-5a1.11,1.11,0,0,0-.87.38,1.94,1.94,0,0,0-.42,1h2.5v-.09a1.57,1.57,0,0,0-.35-1A1.09,1.09,0,0,0,77.26,69.4Zm4.75-1,0,.68a2.13,2.13,0,0,1,1.71-.79q1.83,0,1.86,2.1v3.87H84.31V70.52a1.21,1.21,0,0,0-.25-.83,1,1,0,0,0-.78-.27,1.27,1.27,0,0,0-1.19.72v4.17H80.77V68.45Zm7.47,2.88a3.53,3.53,0,0,1,.62-2.18,2,2,0,0,1,1.7-.81,1.92,1.92,0,0,1,1.56.69l.08-.58H94.6v8.11H93.29V73.81a2,2,0,0,1-1.5.61,2,2,0,0,1-1.68-.82A3.65,3.65,0,0,1,89.48,71.33Zm1.31.12a2.41,2.41,0,0,0,.36,1.41,1.12,1.12,0,0,0,1,.51,1.24,1.24,0,0,0,1.16-.67V70a1.24,1.24,0,0,0-1.15-.64,1.16,1.16,0,0,0-1,.5A2.69,2.69,0,0,0,90.79,71.45Zm8.78,2.29a2.06,2.06,0,0,1-1.65.68,1.83,1.83,0,0,1-1.44-.56A2.35,2.35,0,0,1,96,72.25v-3.8h1.32v3.78c0,.75.31,1.12.92,1.12a1.31,1.31,0,0,0,1.3-.69V68.45h1.31v5.86H99.6Zm5.19.68a2.72,2.72,0,0,1-2-.79,2.87,2.87,0,0,1-.77-2.1v-.16a3.48,3.48,0,0,1,.34-1.57,2.55,2.55,0,0,1,2.31-1.46,2.29,2.29,0,0,1,1.85.77,3.2,3.2,0,0,1,.65,2.16v.53h-3.83a1.79,1.79,0,0,0,.49,1.15,1.45,1.45,0,0,0,1.07.42,1.8,1.8,0,0,0,1.47-.73l.71.67a2.27,2.27,0,0,1-.94.82A3,3,0,0,1,104.76,74.42Zm-.15-5a1.13,1.13,0,0,0-.88.38,1.94,1.94,0,0,0-.42,1h2.5v-.09a1.57,1.57,0,0,0-.35-1A1.07,1.07,0,0,0,104.61,69.4Zm4.92,4.91h-1.31V66h1.31Zm1.19-3a3.47,3.47,0,0,1,.63-2.18,2,2,0,0,1,1.7-.81,1.91,1.91,0,0,1,1.55.69l.08-.58h1.17v8.11h-1.32V73.81a1.94,1.94,0,0,1-1.49.61,2,2,0,0,1-1.69-.82A3.65,3.65,0,0,1,110.72,71.33Zm1.32.12a2.41,2.41,0,0,0,.35,1.41,1.14,1.14,0,0,0,1,.51,1.24,1.24,0,0,0,1.16-.67V70a1.23,1.23,0,0,0-1.15-.64,1.16,1.16,0,0,0-1,.5A2.69,2.69,0,0,0,112,71.45Zm8.77,2.29a2,2,0,0,1-1.64.68,1.84,1.84,0,0,1-1.45-.56,2.4,2.4,0,0,1-.49-1.61v-3.8h1.32v3.78c0,.75.31,1.12.93,1.12a1.29,1.29,0,0,0,1.29-.69V68.45h1.32v5.86h-1.24Zm5.2.68a2.7,2.7,0,0,1-2-.79,2.84,2.84,0,0,1-.78-2.1v-.16a3.48,3.48,0,0,1,.34-1.57,2.54,2.54,0,0,1,.95-1.07,2.49,2.49,0,0,1,1.37-.39,2.29,2.29,0,0,1,1.84.77,3.21,3.21,0,0,1,.66,2.16v.53h-3.83A1.78,1.78,0,0,0,125,73a1.47,1.47,0,0,0,1.07.42,1.81,1.81,0,0,0,1.48-.73l.71.67a2.33,2.33,0,0,1-.94.82A3,3,0,0,1,126,74.42Zm-.16-5a1.11,1.11,0,0,0-.87.38,1.87,1.87,0,0,0-.43,1h2.51v-.09a1.63,1.63,0,0,0-.35-1A1.11,1.11,0,0,0,125.85,69.4Zm6.81,3.32a.59.59,0,0,0-.29-.54,3,3,0,0,0-1-.32,4.92,4.92,0,0,1-1.12-.36,1.5,1.5,0,0,1-1-1.38,1.58,1.58,0,0,1,.64-1.27,2.54,2.54,0,0,1,1.63-.51,2.69,2.69,0,0,1,1.7.52,1.66,1.66,0,0,1,.64,1.35H132.6a.82.82,0,0,0-.29-.63,1,1,0,0,0-.74-.25,1.13,1.13,0,0,0-.71.2.63.63,0,0,0-.27.54.53.53,0,0,0,.25.47,3.72,3.72,0,0,0,1,.34,4.7,4.7,0,0,1,1.22.4,1.75,1.75,0,0,1,.65.57,1.45,1.45,0,0,1,.22.8,1.52,1.52,0,0,1-.66,1.28,2.78,2.78,0,0,1-1.72.49,3.08,3.08,0,0,1-1.28-.26,2.09,2.09,0,0,1-.88-.72,1.68,1.68,0,0,1-.31-1h1.28a.91.91,0,0,0,.35.72,1.35,1.35,0,0,0,.86.25,1.34,1.34,0,0,0,.79-.19A.63.63,0,0,0,132.66,72.72Zm7.61.65a1.21,1.21,0,0,0,.82-.29,1,1,0,0,0,.34-.71h1.24a1.81,1.81,0,0,1-.34,1,2.16,2.16,0,0,1-.86.75,2.53,2.53,0,0,1-1.18.28,2.5,2.5,0,0,1-1.95-.8,3.14,3.14,0,0,1-.72-2.19v-.14a3.12,3.12,0,0,1,.71-2.14,2.48,2.48,0,0,1,1.95-.81A2.41,2.41,0,0,1,142,69a2.18,2.18,0,0,1,.69,1.6h-1.24a1.18,1.18,0,0,0-.34-.83,1.12,1.12,0,0,0-.82-.32,1.17,1.17,0,0,0-1,.46,2.43,2.43,0,0,0-.35,1.41v.21a2.39,2.39,0,0,0,.35,1.42A1.16,1.16,0,0,0,140.27,73.37Zm4.8.94h-1.32V66h1.32Zm1.43-7.38a.78.78,0,0,1,1.3-.5.68.68,0,0,1,.19.5.69.69,0,0,1-.19.5.76.76,0,0,1-.56.19.75.75,0,0,1-.55-.19A.74.74,0,0,1,146.5,66.93Zm1.4,7.38h-1.32V68.45h1.32Zm3.84-.94a1.21,1.21,0,0,0,.82-.29,1,1,0,0,0,.34-.71h1.24a1.81,1.81,0,0,1-.34,1,2.16,2.16,0,0,1-.86.75,2.53,2.53,0,0,1-1.18.28,2.5,2.5,0,0,1-1.95-.8,3.14,3.14,0,0,1-.72-2.19v-.14a3.07,3.07,0,0,1,.71-2.14,2.48,2.48,0,0,1,1.95-.81,2.42,2.42,0,0,1,1.7.61,2.18,2.18,0,0,1,.69,1.6H152.9a1.22,1.22,0,0,0-.34-.83,1.12,1.12,0,0,0-.82-.32,1.15,1.15,0,0,0-1,.46,2.36,2.36,0,0,0-.35,1.41v.21a2.39,2.39,0,0,0,.35,1.42A1.16,1.16,0,0,0,151.74,73.37Zm6.68-.65a.59.59,0,0,0-.29-.54,3,3,0,0,0-1-.32,4.92,4.92,0,0,1-1.12-.36,1.5,1.5,0,0,1-1-1.38,1.58,1.58,0,0,1,.64-1.27,2.54,2.54,0,0,1,1.63-.51,2.69,2.69,0,0,1,1.7.52,1.66,1.66,0,0,1,.64,1.35h-1.31a.84.84,0,0,0-.28-.63,1.08,1.08,0,0,0-.75-.25,1.13,1.13,0,0,0-.71.2.63.63,0,0,0-.27.54.53.53,0,0,0,.25.47,3.85,3.85,0,0,0,1,.34,4.7,4.7,0,0,1,1.22.4,1.75,1.75,0,0,1,.65.57,1.45,1.45,0,0,1,.22.8,1.52,1.52,0,0,1-.66,1.28,2.78,2.78,0,0,1-1.72.49,3,3,0,0,1-1.28-.26,2.09,2.09,0,0,1-.88-.72,1.68,1.68,0,0,1-.31-1h1.28a.89.89,0,0,0,.35.72,1.66,1.66,0,0,0,1.65.06A.63.63,0,0,0,158.42,72.72Z" transform="translate(-4.32 -24.25)"/><path class="cls-6" d="M4.32,53.27V24.64h8.46a13.35,13.35,0,0,1,6.73,1.69,11.52,11.52,0,0,1,4.55,4.8,15.16,15.16,0,0,1,1.61,7.12v1.43a15.18,15.18,0,0,1-1.62,7.16,11.4,11.4,0,0,1-4.62,4.76,13.92,13.92,0,0,1-6.87,1.67Zm5-24.62V49.3h3.25a7.49,7.49,0,0,0,6-2.45c1.39-1.63,2.1-4,2.13-7V38.23q0-4.66-2-7.12a7.17,7.17,0,0,0-5.87-2.46ZM35.88,53.27h-5V24.64h5Zm28.05-3.72a9.46,9.46,0,0,1-4.3,3.07,17.69,17.69,0,0,1-6.25,1A12.27,12.27,0,0,1,47,52a10.84,10.84,0,0,1-4.28-4.67,16.38,16.38,0,0,1-1.56-7.09V38q0-6.48,3.1-10.13a10.75,10.75,0,0,1,8.67-3.65,11.38,11.38,0,0,1,7.59,2.37,10.18,10.18,0,0,1,3.38,6.81H59q-.82-5.17-6-5.17A5.86,5.86,0,0,0,48,30.67q-1.74,2.4-1.8,7.06v2.2q0,4.64,2,7.2a6.43,6.43,0,0,0,5.43,2.56c2.55,0,4.35-.58,5.43-1.73v-5.6h-5.9V38.58H63.93Zm10.72,3.72h-5V24.64h5Zm16.63-11H85.74v11h-5V24.64H90.83q5,0,7.65,2.22a7.87,7.87,0,0,1,2.69,6.44,8.07,8.07,0,0,1-1.38,4.81,8.8,8.8,0,0,1-3.87,3L102.35,53v.26H97Zm-5.54-4h5.11A5.7,5.7,0,0,0,94.78,37a4.41,4.41,0,0,0,1.42-3.47A4.73,4.73,0,0,0,94.89,30a5.56,5.56,0,0,0-3.9-1.3H85.74Zm36.88,2.24H110.87V49.3h13.74v4H105.89V24.64h18.58v4h-13.6v7.91h11.75ZM150.5,44a10.3,10.3,0,0,1-3.38,7.15,11.51,11.51,0,0,1-7.84,2.56,11.2,11.2,0,0,1-6-1.62,10.6,10.6,0,0,1-4-4.61,16.71,16.71,0,0,1-1.47-6.94V37.81a16.69,16.69,0,0,1,1.43-7.13,10.8,10.8,0,0,1,4.12-4.76,11.53,11.53,0,0,1,6.2-1.67,11.05,11.05,0,0,1,7.63,2.56,10.7,10.7,0,0,1,3.36,7.27h-4.95a7.1,7.1,0,0,0-1.8-4.45,5.91,5.91,0,0,0-4.24-1.37,5.81,5.81,0,0,0-5,2.37q-1.74,2.37-1.78,7v2.54q0,4.63,1.66,7.08a5.51,5.51,0,0,0,4.87,2.44,6.41,6.41,0,0,0,4.4-1.32A6.85,6.85,0,0,0,145.55,44Z" transform="translate(-4.32 -24.25)"/><path class="cls-6" d="M4.32,53.27V24.64h8.46a13.35,13.35,0,0,1,6.73,1.69,11.52,11.52,0,0,1,4.55,4.8,15.16,15.16,0,0,1,1.61,7.12v1.43a15.18,15.18,0,0,1-1.62,7.16,11.4,11.4,0,0,1-4.62,4.76,13.92,13.92,0,0,1-6.87,1.67Zm5-24.62V49.3h3.25a7.49,7.49,0,0,0,6-2.45c1.39-1.63,2.1-4,2.13-7V38.23q0-4.66-2-7.12a7.17,7.17,0,0,0-5.87-2.46ZM35.88,53.27h-5V24.64h5Zm28.05-3.72a9.46,9.46,0,0,1-4.3,3.07,17.69,17.69,0,0,1-6.25,1A12.27,12.27,0,0,1,47,52a10.84,10.84,0,0,1-4.28-4.67,16.38,16.38,0,0,1-1.56-7.09V38q0-6.48,3.1-10.13a10.75,10.75,0,0,1,8.67-3.65,11.38,11.38,0,0,1,7.59,2.37,10.18,10.18,0,0,1,3.38,6.81H59q-.82-5.17-6-5.17A5.86,5.86,0,0,0,48,30.67q-1.74,2.4-1.8,7.06v2.2q0,4.64,2,7.2a6.43,6.43,0,0,0,5.43,2.56c2.55,0,4.35-.58,5.43-1.73v-5.6h-5.9V38.58H63.93Zm10.72,3.72h-5V24.64h5Zm16.63-11H85.74v11h-5V24.64H90.83q5,0,7.65,2.22a7.87,7.87,0,0,1,2.69,6.44,8.07,8.07,0,0,1-1.38,4.81,8.8,8.8,0,0,1-3.87,3L102.35,53v.26H97Zm-5.54-4h5.11A5.7,5.7,0,0,0,94.78,37a4.41,4.41,0,0,0,1.42-3.47A4.73,4.73,0,0,0,94.89,30a5.56,5.56,0,0,0-3.9-1.3H85.74Zm36.88,2.24H110.87V49.3h13.74v4H105.89V24.64h18.58v4h-13.6v7.91h11.75ZM150.5,44a10.3,10.3,0,0,1-3.38,7.15,11.51,11.51,0,0,1-7.84,2.56,11.2,11.2,0,0,1-6-1.62,10.6,10.6,0,0,1-4-4.61,16.71,16.71,0,0,1-1.47-6.94V37.81a16.69,16.69,0,0,1,1.43-7.13,10.8,10.8,0,0,1,4.12-4.76,11.53,11.53,0,0,1,6.2-1.67,11.05,11.05,0,0,1,7.63,2.56,10.7,10.7,0,0,1,3.36,7.27h-4.95a7.1,7.1,0,0,0-1.8-4.45,5.91,5.91,0,0,0-4.24-1.37,5.81,5.81,0,0,0-5,2.37q-1.74,2.37-1.78,7v2.54q0,4.63,1.66,7.08a5.51,5.51,0,0,0,4.87,2.44,6.41,6.41,0,0,0,4.4-1.32A6.85,6.85,0,0,0,145.55,44Z" transform="translate(-4.32 -24.25)"/><path class="cls-6" d="M4.32,53.27V24.64h8.46a13.35,13.35,0,0,1,6.73,1.69,11.52,11.52,0,0,1,4.55,4.8,15.16,15.16,0,0,1,1.61,7.12v1.43a15.18,15.18,0,0,1-1.62,7.16,11.4,11.4,0,0,1-4.62,4.76,13.92,13.92,0,0,1-6.87,1.67Zm5-24.62V49.3h3.25a7.49,7.49,0,0,0,6-2.45c1.39-1.63,2.1-4,2.13-7V38.23q0-4.66-2-7.12a7.17,7.17,0,0,0-5.87-2.46ZM35.88,53.27h-5V24.64h5Zm28.05-3.72a9.46,9.46,0,0,1-4.3,3.07,17.69,17.69,0,0,1-6.25,1A12.27,12.27,0,0,1,47,52a10.84,10.84,0,0,1-4.28-4.67,16.38,16.38,0,0,1-1.56-7.09V38q0-6.48,3.1-10.13a10.75,10.75,0,0,1,8.67-3.65,11.38,11.38,0,0,1,7.59,2.37,10.18,10.18,0,0,1,3.38,6.81H59q-.82-5.17-6-5.17A5.86,5.86,0,0,0,48,30.67q-1.74,2.4-1.8,7.06v2.2q0,4.64,2,7.2a6.43,6.43,0,0,0,5.43,2.56c2.55,0,4.35-.58,5.43-1.73v-5.6h-5.9V38.58H63.93Zm10.72,3.72h-5V24.64h5Zm16.63-11H85.74v11h-5V24.64H90.83q5,0,7.65,2.22a7.87,7.87,0,0,1,2.69,6.44,8.07,8.07,0,0,1-1.38,4.81,8.8,8.8,0,0,1-3.87,3L102.35,53v.26H97Zm-5.54-4h5.11A5.7,5.7,0,0,0,94.78,37a4.41,4.41,0,0,0,1.42-3.47A4.73,4.73,0,0,0,94.89,30a5.56,5.56,0,0,0-3.9-1.3H85.74Zm36.88,2.24H110.87V49.3h13.74v4H105.89V24.64h18.58v4h-13.6v7.91h11.75ZM150.5,44a10.3,10.3,0,0,1-3.38,7.15,11.51,11.51,0,0,1-7.84,2.56,11.2,11.2,0,0,1-6-1.62,10.6,10.6,0,0,1-4-4.61,16.71,16.71,0,0,1-1.47-6.94V37.81a16.69,16.69,0,0,1,1.43-7.13,10.8,10.8,0,0,1,4.12-4.76,11.53,11.53,0,0,1,6.2-1.67,11.05,11.05,0,0,1,7.63,2.56,10.7,10.7,0,0,1,3.36,7.27h-4.95a7.1,7.1,0,0,0-1.8-4.45,5.91,5.91,0,0,0-4.24-1.37,5.81,5.81,0,0,0-5,2.37q-1.74,2.37-1.78,7v2.54q0,4.63,1.66,7.08a5.51,5.51,0,0,0,4.87,2.44,6.41,6.41,0,0,0,4.4-1.32A6.85,6.85,0,0,0,145.55,44Z" transform="translate(-4.32 -24.25)"/><path class="cls-6" d="M4.32,53.27V24.64h8.46a13.35,13.35,0,0,1,6.73,1.69,11.52,11.52,0,0,1,4.55,4.8,15.16,15.16,0,0,1,1.61,7.12v1.43a15.18,15.18,0,0,1-1.62,7.16,11.4,11.4,0,0,1-4.62,4.76,13.92,13.92,0,0,1-6.87,1.67Zm5-24.62V49.3h3.25a7.49,7.49,0,0,0,6-2.45c1.39-1.63,2.1-4,2.13-7V38.23q0-4.66-2-7.12a7.17,7.17,0,0,0-5.87-2.46ZM35.88,53.27h-5V24.64h5Zm28.05-3.72a9.46,9.46,0,0,1-4.3,3.07,17.69,17.69,0,0,1-6.25,1A12.27,12.27,0,0,1,47,52a10.84,10.84,0,0,1-4.28-4.67,16.38,16.38,0,0,1-1.56-7.09V38q0-6.48,3.1-10.13a10.75,10.75,0,0,1,8.67-3.65,11.38,11.38,0,0,1,7.59,2.37,10.18,10.18,0,0,1,3.38,6.81H59q-.82-5.17-6-5.17A5.86,5.86,0,0,0,48,30.67q-1.74,2.4-1.8,7.06v2.2q0,4.64,2,7.2a6.43,6.43,0,0,0,5.43,2.56c2.55,0,4.35-.58,5.43-1.73v-5.6h-5.9V38.58H63.93Zm10.72,3.72h-5V24.64h5Zm16.63-11H85.74v11h-5V24.64H90.83q5,0,7.65,2.22a7.87,7.87,0,0,1,2.69,6.44,8.07,8.07,0,0,1-1.38,4.81,8.8,8.8,0,0,1-3.87,3L102.35,53v.26H97Zm-5.54-4h5.11A5.7,5.7,0,0,0,94.78,37a4.41,4.41,0,0,0,1.42-3.47A4.73,4.73,0,0,0,94.89,30a5.56,5.56,0,0,0-3.9-1.3H85.74Zm36.88,2.24H110.87V49.3h13.74v4H105.89V24.64h18.58v4h-13.6v7.91h11.75ZM150.5,44a10.3,10.3,0,0,1-3.38,7.15,11.51,11.51,0,0,1-7.84,2.56,11.2,11.2,0,0,1-6-1.62,10.6,10.6,0,0,1-4-4.61,16.71,16.71,0,0,1-1.47-6.94V37.81a16.69,16.69,0,0,1,1.43-7.13,10.8,10.8,0,0,1,4.12-4.76,11.53,11.53,0,0,1,6.2-1.67,11.05,11.05,0,0,1,7.63,2.56,10.7,10.7,0,0,1,3.36,7.27h-4.95a7.1,7.1,0,0,0-1.8-4.45,5.91,5.91,0,0,0-4.24-1.37,5.81,5.81,0,0,0-5,2.37q-1.74,2.37-1.78,7v2.54q0,4.63,1.66,7.08a5.51,5.51,0,0,0,4.87,2.44,6.41,6.41,0,0,0,4.4-1.32A6.85,6.85,0,0,0,145.55,44Z" transform="translate(-4.32 -24.25)"/></svg>